<svg xmlns="http://www.w3.org/2000/svg" viewBox="0 0 87.04 42.15"><defs><style>.cls-1{fill:none;stroke:#505050;stroke-linecap:round;stroke-linejoin:round;stroke-width:2px;}</style></defs><title>Asset 3</title><g id="Layer_2" data-name="Layer 2"><g id="Layer_1-2" data-name="Layer 1"><path class="cls-1" d="M1,7.6s11.28-.46,18.06-3.21c0,0,10.27-2,15.13-.34"/><path class="cls-1" d="M2.47,22.27s5.81,1.87,11.26.15"/><path class="cls-1" d="M8.79,19s9.41,6.4,10.61,9.16"/><path class="cls-1" d="M17.78,30.43s1.65,2.66,4.13,3c0,0-.73,2.75,4,4A5.24,5.24,0,0,0,30.62,40s2.84,2.84,6.69-.73c0,0,1.56-2.38-3.12-4.49L30.62,40l4-5.87s.16-4.57-4.77-2.66l-3.94,6.05L30,31.18s-.25-4.35-4.55-2.22l-3.58,4.49,3.81-4.79s-.9-3.85-4.52-3.18Z"/><path class="cls-1" d="M47,8.26s-5.28-.81-9,2.85c0,0-6.13,6.32-12.48,6.1,0,0-5.52-1.74-3.31-5.23L36.74,2.45S49.87,0,55.25,1.44a2.28,2.28,0,0,1,1,.6c2.39,2.4,15.36,14.78,25.92,11.74"/><path class="cls-1" d="M86,27s-6.85-1-8.19-.29c0,0-11.08,12.36-21.42,7"/><path class="cls-1" d="M42.25,8.7S58.91,23,59.47,25.11c0,0,1.49,3.81-1.58,5.06a4.64,4.64,0,0,1-.68.22S50,28.7,46.55,25.59"/><path class="cls-1" d="M43.16,30.49s9.9,5.47,10.75,5.09,4-2.51,4-5.4"/><path class="cls-1" d="M39.29,33.41S48.91,38.6,50,38.6a3.77,3.77,0,0,0,3.87-3"/><path class="cls-1" d="M37.78,37.94l7.92,3.21s2.83-.28,3-2.92"/></g></g></svg>