<svg xmlns="http://www.w3.org/2000/svg" viewBox="0 0 70.78 76.41"><defs><style>.cls-1{fill:none;stroke:#505050;stroke-linecap:round;stroke-linejoin:round;stroke-width:2px;}</style></defs><title>Asset 4</title><g id="Layer_2" data-name="Layer 2"><g id="Layer_1-2" data-name="Layer 1"><path class="cls-1" d="M62.45,9c0,21.54-12.09,39-27,39-11.18,0-20.78-9.82-24.88-23.82A54.15,54.15,0,0,1,8.45,9"/><path class="cls-1" d="M38.91,64.68c2.53.33,12.52,2.5,12.52,5.25,0,3-6.95,5.48-15.52,5.48S20.4,73,20.4,69.93c0-2.38,6.86-4.73,11.83-5.32"/><path class="cls-1" d="M26.54,45.87s7.52,18.68,5.58,22.8"/><path class="cls-1" d="M44.56,45.75S37,64.43,39,68.55"/><path class="cls-1" d="M40.32,68.3c0,.89-2.14,1.61-4.78,1.61s-4.78-.72-4.78-1.61"/><path class="cls-1" d="M62.45,9c0,4.42-11.31,8-26.5,8S8.45,13.42,8.45,9s12.31-8,27.5-8S62.45,4.58,62.45,9Z"/><path class="cls-1" d="M8.35,10.75H1.1s-2.29,23,15.17,26.73"/><path class="cls-1" d="M62.26,10.55l7.4-.15s2.51,23.66-15.41,27.07"/></g></g></svg>